<svg width="32" height="32" viewBox="0 0 32 32" fill="none" xmlns="http://www.w3.org/2000/svg">
<g clip-path="url(#clip0_97_2)">
<rect width="32" height="32" fill="black"/>
<path d="M15.8438 18.7031C16.4271 20.599 17.1979 22.1562 18.1562 23.375C19.4062 24.9896 20.8542 25.7969 22.5 25.7969C23.8958 25.7969 25.099 25.3021 26.1094 24.3125C27.1302 23.3229 27.6406 22.1302 27.6406 20.7344C27.6406 18.9323 26.6875 17.5625 24.7812 16.625C24.6042 16.5417 22.8385 15.7552 19.4844 14.2656C17.5781 13.1927 16.625 11.7135 16.625 9.82812C16.625 8.23438 17.2552 6.88021 18.5156 5.76562C19.7865 4.65104 21.3021 4.09375 23.0625 4.09375C23.3542 4.09375 24.0052 4.20833 25.0156 4.4375C26.0365 4.65625 26.6979 4.76562 27 4.76562C27.3958 4.76562 27.776 4.57292 28.1406 4.1875C28.3177 5.61458 28.5625 7.75521 28.875 10.6094H28.5781C28.2344 9.11979 27.5469 7.94792 26.5156 7.09375C25.4948 6.22917 24.2708 5.79688 22.8438 5.79688C21.8438 5.79688 21.0104 6.11458 20.3438 6.75C19.6875 7.38542 19.3594 8.18229 19.3594 9.14062C19.3594 10.1615 20.2188 11.0625 21.9375 11.8438L26.125 13.75C27.6771 14.4583 28.7604 15.2812 29.375 16.2188C29.9896 17.1562 30.2969 18.4531 30.2969 20.1094C30.2969 22.0677 29.5208 23.7865 27.9688 25.2656C26.4167 26.7448 24.625 27.4844 22.5938 27.4844C22.2917 27.4844 21.6302 27.3542 20.6094 27.0938C19.5885 26.8438 18.9323 26.7188 18.6406 26.7188C18.0573 26.7188 17.6198 26.9792 17.3281 27.5C16.9427 25.5521 16.3385 22.6198 15.5156 18.7031H15.8438Z" fill="white"/>
<path d="M3.59375 19.5312H3.82812C3.82812 21.125 4.15104 22.4792 4.79688 23.5938C5.58854 24.9583 6.72396 25.6406 8.20312 25.6406C10.6198 25.6406 11.8281 24.0312 11.8281 20.8125V7.53125C11.8281 5.94792 11.2552 5.06771 10.1094 4.89062V4.625H16.5938V4.89062C15.4062 4.99479 14.8125 5.91667 14.8125 7.65625V20.2969C14.8125 22.526 14.224 24.2604 13.0469 25.5C11.8802 26.7396 10.2344 27.3594 8.10938 27.3594C7.02604 27.3594 6.04688 27.1719 5.17188 26.7969C4.48438 26.4948 3.63021 25.9688 2.60938 25.2188C2.83854 24.3125 3.16667 22.4167 3.59375 19.5312Z" fill="white"/>
</g>
<defs>
<clipPath id="clip0_97_2">
<rect width="32" height="32" fill="white"/>
</clipPath>
</defs>
</svg>
